<svg width="138" height="52" viewBox="0 0 138 52" fill="none" xmlns="http://www.w3.org/2000/svg">
<path d="M1.68066 20.2838C1.68066 20.2838 21.4158 2.36328 51.0186 2.36328C80.6213 2.36328 91.0884 47.1647 60.123 47.1647C39.3435 47.1647 43.1197 27.9641 70.7538 27.9641C110.224 27.9641 134.893 47.1647 134.893 47.1647" stroke="#B42AB5" stroke-width="3" stroke-linecap="round" stroke-linejoin="round"/>
<path d="M131.889 37.7663C132.464 39.2513 133.035 40.7363 133.601 42.2243C133.793 42.7303 135.55 46.2343 135.284 46.6933C135.086 47.0353 133.164 47.3543 132.657 47.5693C131.011 48.2653 129.56 49.0443 127.724 48.9993C126.114 48.9613 126.114 51.4613 127.724 51.4993C129.584 51.5453 131.137 50.9403 132.821 50.2133C134.115 49.6533 136.356 49.3683 137.331 48.2463C138.396 47.0193 137.506 45.5193 137.025 44.2393C136.129 41.8559 135.22 39.4769 134.3 37.1023C133.725 35.6173 131.307 36.2623 131.89 37.7663H131.889Z" fill="#B42AB5"/>
</svg>
