<svg width="45" height="44" viewBox="0 0 45 44" fill="none" xmlns="http://www.w3.org/2000/svg">
<path d="M14.7724 43.5592C15.8443 43.5547 16.8716 43.1291 17.6327 42.3742L20.2205 39.7864C20.9881 40.5263 22.0146 40.9369 23.0808 40.9305C23.9062 40.9607 24.7214 40.7401 25.4189 40.2977C26.1164 39.8553 26.6634 39.2119 26.9879 38.4523C27.3124 37.6928 27.3991 36.8527 27.2365 36.0429C27.0739 35.2331 26.6697 34.4915 26.0772 33.916L27.5346 32.4587C27.7423 32.251 27.859 31.9693 27.859 31.6755C27.859 31.3818 27.7423 31.1001 27.5346 30.8924C27.3269 30.6846 27.0452 30.568 26.7514 30.568C26.4577 30.568 26.176 30.6846 25.9683 30.8924L23.6119 33.2623C23.4865 33.3895 23.3938 33.5453 23.3418 33.7163C23.2899 33.8872 23.2802 34.0683 23.3137 34.2438C23.3472 34.4193 23.4229 34.5841 23.5341 34.7239C23.6454 34.8637 23.7889 34.9745 23.9525 35.0465C24.1451 35.132 24.3205 35.2521 24.47 35.4007C24.7429 35.6704 24.9295 36.0152 25.0059 36.3912C25.0823 36.7672 25.0451 37.1575 24.8991 37.5123C24.753 37.8672 24.5048 38.1706 24.1858 38.3839C23.8669 38.5972 23.4917 38.7109 23.108 38.7104C22.8544 38.7097 22.6036 38.6587 22.3698 38.5606C22.136 38.4624 21.924 38.3189 21.746 38.1383C21.5976 37.9886 21.4776 37.8133 21.3918 37.6208C21.3151 37.4628 21.2017 37.3254 21.0611 37.2201C20.9205 37.1147 20.7568 37.0445 20.5837 37.0152C20.4105 36.9859 20.2328 36.9984 20.0654 37.0516C19.898 37.1048 19.7457 37.1972 19.6212 37.3211L16.0799 40.8351C15.7269 41.1645 15.262 41.3477 14.7792 41.3477C14.2964 41.3477 13.8315 41.1645 13.4785 40.8351L11.3129 38.6695C11.8994 38.094 12.2988 37.3549 12.4589 36.5489C12.6189 35.7429 12.5323 34.9073 12.2102 34.1514C11.888 33.3953 11.3455 32.754 10.6533 32.3111C9.96108 31.8683 9.15143 31.6444 8.33003 31.6687C7.26194 31.6659 6.23524 32.0815 5.46978 32.8264L3.27691 30.6336C3.10601 30.4628 2.97042 30.26 2.87792 30.0368C2.78542 29.8137 2.73781 29.5744 2.73781 29.3328C2.73781 29.0912 2.78542 28.852 2.87792 28.6288C2.97042 28.4056 3.10601 28.2029 3.27691 28.0321L6.79094 24.4908C6.91684 24.3646 7.01026 24.2096 7.06318 24.0393C7.11611 23.8691 7.12697 23.6885 7.09484 23.5131C7.0627 23.3377 6.98853 23.1727 6.87867 23.0322C6.76881 22.8918 6.62655 22.78 6.46405 22.7066C6.26562 22.6182 6.08547 22.4934 5.93287 22.3388C5.57355 21.9766 5.37194 21.487 5.37194 20.9768C5.37194 20.4666 5.57355 19.977 5.93287 19.6148C6.30009 19.265 6.78777 19.07 7.29489 19.07C7.80201 19.07 8.28969 19.265 8.65691 19.6148C8.81128 19.7676 8.93596 19.9477 9.02466 20.146C9.0981 20.3085 9.20984 20.4507 9.35031 20.5606C9.49077 20.6704 9.65577 20.7446 9.83117 20.7768C10.0066 20.8089 10.1871 20.798 10.3574 20.7451C10.5277 20.6922 10.6826 20.5988 10.8089 20.4729L13.1788 18.1166C13.2817 18.0137 13.3633 17.8916 13.4189 17.7572C13.4746 17.6229 13.5032 17.4788 13.5032 17.3334C13.5032 17.1879 13.4746 17.0439 13.4189 16.9095C13.3633 16.7752 13.2817 16.6531 13.1788 16.5502C12.9711 16.3425 12.6894 16.2258 12.3957 16.2258C12.2502 16.2258 12.1062 16.2545 11.9718 16.3101C11.8375 16.3658 11.7154 16.4474 11.6125 16.5502L10.1551 18.0076C9.3696 17.2692 8.3321 16.8582 7.25403 16.8582C6.17596 16.8582 5.13845 17.2692 4.35292 18.0076C3.96993 18.3874 3.66595 18.8394 3.45851 19.3373C3.25106 19.8352 3.14426 20.3693 3.14426 20.9087C3.14426 21.4481 3.25106 21.9822 3.45851 22.4801C3.66595 22.978 3.96993 23.43 4.35292 23.8098L1.76507 26.3977C1.01639 27.1615 0.597034 28.1884 0.597034 29.2579C0.597034 30.3275 1.01639 31.3544 1.76507 32.1182L4.82962 35.1827C4.9559 35.3086 5.11082 35.402 5.28111 35.455C5.45139 35.5079 5.63197 35.5188 5.80737 35.4866C5.98277 35.4545 6.14777 35.3803 6.28823 35.2705C6.42869 35.1606 6.54043 35.0183 6.61388 34.8558C6.6994 34.6632 6.81941 34.4878 6.968 34.3383C7.14603 34.1577 7.35804 34.0142 7.59181 33.916C7.82558 33.8179 8.07648 33.7669 8.33003 33.7662C8.58273 33.7644 8.83328 33.8128 9.0671 33.9087C9.30092 34.0046 9.51336 34.146 9.69205 34.3247C10.0514 34.6869 10.253 35.1765 10.253 35.6867C10.253 36.1969 10.0514 36.6865 9.69205 37.0487C9.53741 37.2045 9.35789 37.3333 9.16086 37.4301C9.00288 37.5068 8.86551 37.6202 8.76018 37.7608C8.65485 37.9014 8.58461 38.0651 8.5553 38.2383C8.52599 38.4115 8.53846 38.5891 8.59167 38.7565C8.64488 38.9239 8.73729 39.0762 8.86122 39.2007L11.9258 42.2653C12.6656 43.0569 13.6895 43.5224 14.7724 43.5592Z" fill="#F89325"/>
<path d="M29.2778 29.0538C30.3497 29.0493 31.3769 28.6237 32.138 27.8688L34.7259 25.281C35.5025 26.0576 36.5559 26.4939 37.6542 26.4939C38.7526 26.4939 39.8059 26.0576 40.5826 25.281C41.3592 24.5043 41.7955 23.4509 41.7955 22.3526C41.7955 21.2543 41.3592 20.2009 40.5826 19.4242L42.9525 17.0543C43.7074 16.2932 44.1329 15.266 44.1375 14.1941C44.1329 13.1221 43.7074 12.0949 42.9525 11.3338L40.7869 9.1682C41.1699 8.78834 41.4738 8.33642 41.6813 7.83849C41.8887 7.34057 41.9955 6.80649 41.9955 6.26708C41.9955 5.72767 41.8887 5.1936 41.6813 4.69567C41.4738 4.19775 41.1699 3.74582 40.7869 3.36597C40.0013 2.62761 38.9638 2.21655 37.8858 2.21655C36.8077 2.21655 35.7702 2.62761 34.9846 3.36597L32.7782 1.15949C32.0144 0.41081 30.9875 -0.00854492 29.9179 -0.00854492C28.8484 -0.00854492 27.8215 0.41081 27.0577 1.15949L24.6877 3.51579C24.3032 3.13124 23.8466 2.82619 23.3442 2.61807C22.8417 2.40995 22.3032 2.30283 21.7594 2.30283C21.2155 2.30283 20.677 2.40995 20.1746 2.61807C19.6721 2.82619 19.2156 3.13124 18.831 3.51579C18.4465 3.90035 18.1414 4.35688 17.9333 4.85933C17.7252 5.36178 17.6181 5.9003 17.6181 6.44415C17.6181 6.98799 17.7252 7.52651 17.9333 8.02896C18.1414 8.53141 18.4465 8.98794 18.831 9.3725L16.2432 11.9603C15.4945 12.7242 15.0751 13.7511 15.0751 14.8206C15.0751 15.8901 15.4945 16.917 16.2432 17.6809L19.3077 20.7454C19.435 20.8709 19.5908 20.9636 19.7617 21.0155C19.9327 21.0675 20.1137 21.0771 20.2893 21.0436C20.4648 21.0101 20.6296 20.9345 20.7694 20.8232C20.9092 20.712 21.0199 20.5684 21.092 20.4049C21.1778 20.2124 21.2978 20.037 21.4461 19.8873C21.6182 19.681 21.8314 19.5127 22.0721 19.3934C22.3128 19.274 22.5758 19.206 22.8442 19.1939C23.1126 19.1818 23.3806 19.2257 23.6311 19.3229C23.8816 19.4201 24.1091 19.5684 24.2991 19.7584C24.4891 19.9484 24.6374 20.1759 24.7346 20.4264C24.8318 20.6769 24.8757 20.9449 24.8636 21.2133C24.8514 21.4817 24.7835 21.7447 24.6641 21.9854C24.5448 22.2261 24.3765 22.4393 24.1702 22.6114C24.0155 22.7671 23.836 22.896 23.639 22.9928C23.481 23.0695 23.3436 23.1829 23.2383 23.3235C23.133 23.4641 23.0627 23.6278 23.0334 23.8009C23.0041 23.9741 23.0166 24.1518 23.0698 24.3192C23.123 24.4866 23.2154 24.6389 23.3393 24.7634L26.4311 27.8688C27.1888 28.6204 28.2105 29.0457 29.2778 29.0538ZM34.8621 22.4888C34.5702 22.4908 34.2911 22.6083 34.0857 22.8157L30.5172 26.3161C30.1657 26.6485 29.7002 26.8337 29.2165 26.8337C28.7327 26.8337 28.2673 26.6485 27.9157 26.3161L25.7501 24.1505C26.1331 23.7706 26.4371 23.3187 26.6445 22.8208C26.852 22.3228 26.9588 21.7888 26.9588 21.2494C26.9588 20.7099 26.852 20.1759 26.6445 19.678C26.4371 19.18 26.1331 18.7281 25.7501 18.3482C25.3705 17.9673 24.9194 17.6651 24.4228 17.4588C23.9261 17.2526 23.3936 17.1464 22.8558 17.1464C22.318 17.1464 21.7855 17.2526 21.2889 17.4588C20.7922 17.6651 20.3411 17.9673 19.9615 18.3482L17.8095 16.1962C17.6386 16.0255 17.503 15.8227 17.4105 15.5995C17.318 15.3763 17.2704 15.1371 17.2704 14.8955C17.2704 14.6539 17.318 14.4147 17.4105 14.1915C17.503 13.9683 17.6386 13.7655 17.8095 13.5948L21.2963 10.0399C21.4226 9.91455 21.5168 9.76051 21.5707 9.59091C21.6246 9.42131 21.6367 9.24119 21.6059 9.0659C21.5751 8.89062 21.5024 8.72539 21.394 8.58429C21.2855 8.4432 21.1445 8.33044 20.983 8.25564C20.7851 8.1664 20.605 8.04178 20.4518 7.88789C20.1427 7.51714 19.9833 7.04416 20.0051 6.5619C20.0269 6.07964 20.2282 5.62296 20.5696 5.28161C20.911 4.94025 21.3676 4.73889 21.8499 4.7171C22.3322 4.69531 22.8051 4.85466 23.1759 5.16384C23.3305 5.31645 23.4552 5.4966 23.5436 5.69503C23.6171 5.85752 23.7288 5.99979 23.8693 6.10965C24.0097 6.21951 24.1747 6.29368 24.3501 6.32582C24.5255 6.35795 24.7061 6.34709 24.8764 6.29416C25.0467 6.24124 25.2016 6.14782 25.3279 6.02192L28.6104 2.69858C28.9634 2.36922 29.4283 2.18606 29.9111 2.18606C30.3939 2.18606 30.8588 2.36922 31.2118 2.69858L34.2764 5.79037C34.4027 5.91696 34.5582 6.01051 34.7293 6.06276C34.9003 6.11502 35.0815 6.12438 35.257 6.09002C35.4382 6.05589 35.6079 5.97693 35.7506 5.86035C35.8934 5.74377 36.0046 5.59328 36.0743 5.42263C36.1644 5.2292 36.289 5.05382 36.442 4.90506C36.8092 4.55532 37.2969 4.36025 37.804 4.36025C38.3112 4.36025 38.7988 4.55532 39.1661 4.90506C39.5221 5.26902 39.7215 5.75793 39.7215 6.26708C39.7215 6.77624 39.5221 7.26515 39.1661 7.62911C39.0073 7.78611 38.8231 7.91506 38.6212 8.01048C38.4633 8.08725 38.3259 8.20064 38.2206 8.34121C38.1152 8.48178 38.045 8.64548 38.0157 8.81867C37.9864 8.99186 37.9988 9.16954 38.0521 9.33695C38.1053 9.50435 38.1977 9.65662 38.3216 9.78111L41.4134 12.9001C41.5843 13.0709 41.7199 13.2737 41.8124 13.4969C41.9049 13.7201 41.9525 13.9593 41.9525 14.2009C41.9525 14.4425 41.9049 14.6817 41.8124 14.9049C41.7199 15.1281 41.5843 15.3309 41.4134 15.5016L38.1445 18.7705C38.0161 18.8976 37.9208 19.0543 37.8671 19.2268C37.8134 19.3994 37.8029 19.5824 37.8366 19.76C37.8702 19.9375 37.9469 20.1041 38.06 20.2451C38.1731 20.386 38.319 20.497 38.485 20.5683C38.6733 20.6545 38.8441 20.7745 38.989 20.9225C39.1953 21.0946 39.3636 21.3078 39.483 21.5485C39.6024 21.7892 39.6703 22.0521 39.6824 22.3205C39.6945 22.589 39.6506 22.857 39.5534 23.1074C39.4562 23.3579 39.3079 23.5854 39.1179 23.7754C38.9279 23.9654 38.7004 24.1137 38.4499 24.2109C38.1994 24.3081 37.9314 24.3521 37.663 24.3399C37.3946 24.3278 37.1316 24.2599 36.8909 24.1405C36.6502 24.0211 36.437 23.8529 36.2649 23.6465C36.1017 23.5006 35.9677 23.3249 35.87 23.129C35.7797 22.9378 35.6371 22.7762 35.4587 22.6629C35.2803 22.5496 35.0734 22.4892 34.8621 22.4888Z" fill="white"/>
</svg>
