<svg width="207" height="343" viewBox="0 0 207 343" fill="none" xmlns="http://www.w3.org/2000/svg">
<path fill-rule="evenodd" clip-rule="evenodd" d="M6 0.558594C2.68629 0.558594 0 3.2449 0 6.55861V253.224C5.99702 253.224 10.8585 258.085 10.8585 264.082C10.8585 270.079 5.99702 274.941 0 274.941V336.452C0 339.765 2.6863 342.452 6.00001 342.452H200.421C203.734 342.452 206.421 339.765 206.421 336.452V274.941C206.421 274.941 206.42 274.941 206.42 274.941C200.7 274.941 196.013 270.518 195.592 264.906H188.412V261.906H195.615V262.994C196.161 257.508 200.79 253.224 206.42 253.224C206.42 253.224 206.421 253.224 206.421 253.224V6.55859C206.421 3.24489 203.734 0.558594 200.421 0.558594H6ZM22.7385 264.906H15.5353V261.906H22.7385V264.906ZM37.1449 264.906H29.9417V261.906H37.1449V264.906ZM51.5513 264.906H44.3481V261.906H51.5513V264.906ZM65.9577 264.906H58.7545V261.906H65.9577V264.906ZM80.3641 264.906H73.1609V261.906H80.3641V264.906ZM94.7705 264.906H87.5673V261.906H94.7705V264.906ZM109.177 264.906H101.974V261.906H109.177V264.906ZM123.583 264.906H116.38V261.906H123.583V264.906ZM137.99 264.906H130.787V261.906H137.99V264.906ZM152.396 264.906H145.193V261.906H152.396V264.906ZM166.803 264.906H159.599V261.906H166.803V264.906ZM181.209 264.906H174.006V261.906H181.209V264.906Z" fill="url(#paint0_linear_2_386)"/>
<defs>
<linearGradient id="paint0_linear_2_386" x1="28.506" y1="-34.0367" x2="361.826" y2="611.075" gradientUnits="userSpaceOnUse">
<stop stop-color="#344AC1"/>
<stop offset="1" stop-color="#B42AB5"/>
</linearGradient>
</defs>
</svg>
