<svg width="44" height="45" viewBox="0 0 44 45" fill="none" xmlns="http://www.w3.org/2000/svg">
<path d="M15.9872 32.687C15.9872 32.3844 15.8669 32.0943 15.6529 31.8804L12.4259 28.6534C12.2079 28.4473 11.9193 28.3325 11.6193 28.3325C11.3193 28.3325 11.0307 28.4473 10.8127 28.6534L2.74626 36.7207L1.9391 35.9134C1.72407 35.7048 1.43563 35.5892 1.13607 35.5915C0.836514 35.5938 0.549875 35.7138 0.338056 35.9256C0.126237 36.1375 0.00623695 36.4241 0.00396949 36.7237C0.00170203 37.0232 0.11735 37.3117 0.325938 37.5267L1.93967 39.1405L5.16612 42.367L6.78054 43.9807C6.88587 44.0893 7.01174 44.1759 7.15083 44.2354C7.28992 44.2948 7.43946 44.3261 7.59073 44.3272C7.74201 44.3284 7.892 44.2994 8.03198 44.2421C8.17197 44.1847 8.29915 44.1001 8.40612 43.9931C8.5131 43.8862 8.59773 43.759 8.6551 43.619C8.71246 43.479 8.74141 43.3291 8.74027 43.1778C8.73912 43.0265 8.7079 42.877 8.64842 42.7379C8.58895 42.5988 8.5024 42.4729 8.39382 42.3676L7.58655 41.5604L15.6539 33.4937C15.8675 33.2796 15.9874 32.9894 15.9872 32.687ZM5.97282 39.9471L4.35954 38.3338L11.6197 31.0732L13.2334 32.687L5.97282 39.9471Z" fill="white"/>
<path d="M39.8545 14.1325L30.1741 4.452C29.9601 4.23809 29.67 4.11792 29.3674 4.11792C29.0649 4.11792 28.7747 4.23809 28.5608 4.452L19.6869 13.3259C19.1895 13.8263 18.8592 14.4684 18.7414 15.164C18.6235 15.8596 18.7239 16.5747 19.0287 17.211L10.8124 25.4263C10.1718 26.0688 9.81204 26.9391 9.81204 27.8464C9.81204 28.7537 10.1718 29.624 10.8124 30.2665L14.0396 33.4937C14.6821 34.1342 15.5524 34.4939 16.4597 34.4939C17.3669 34.4939 18.2372 34.1342 18.8797 33.4937L27.0939 25.2795C27.7295 25.5896 28.4462 25.6926 29.1434 25.5741C29.8406 25.4557 30.4831 25.1217 30.9807 24.6192L39.8545 15.7453C40.0683 15.5314 40.1884 15.2413 40.1884 14.9389C40.1884 14.6365 40.0683 14.3464 39.8545 14.1325ZM17.267 31.8798C17.1611 31.9858 17.0353 32.0699 16.8968 32.1273C16.7584 32.1846 16.61 32.2142 16.4601 32.2142C16.3102 32.2142 16.1618 32.1846 16.0234 32.1273C15.8849 32.0699 15.7591 31.9858 15.6532 31.8798L12.4267 28.6534C12.2131 28.4392 12.093 28.1491 12.0929 27.8466C12.0928 27.544 12.2126 27.2538 12.4262 27.0395L20.4935 18.9728L22.9139 21.393L25.3343 23.8131L17.267 31.8798ZM29.3674 23.0065C29.1504 23.2141 28.8617 23.33 28.5614 23.3301C28.2611 23.3302 27.9724 23.2145 27.7552 23.0071L27.7542 23.0065L21.3001 16.5529C21.0866 16.3387 20.9667 16.0485 20.9667 15.746C20.9667 15.4436 21.0866 15.1534 21.3001 14.9392L29.3674 6.87141L37.4351 14.9392L29.3674 23.0065Z" fill="#F89325"/>
<path d="M42.6777 12.116L32.1905 1.62884C31.927 1.35803 31.6124 1.14227 31.2648 0.994089C30.9172 0.845913 30.5436 0.768278 30.1658 0.765692C29.788 0.763106 29.4134 0.835622 29.0638 0.979027C28.7142 1.12243 28.3966 1.33387 28.1295 1.60105C27.8623 1.86824 27.6509 2.18585 27.5075 2.53543C27.3641 2.88501 27.2916 3.2596 27.2942 3.63744C27.2968 4.01527 27.3745 4.38883 27.5227 4.7364C27.6709 5.08397 27.8867 5.39863 28.1575 5.6621L38.6444 16.149C38.9077 16.4207 39.2224 16.6373 39.5702 16.7861C39.918 16.935 40.2919 17.0132 40.6702 17.0162C41.0485 17.0191 41.4236 16.9468 41.7737 16.8034C42.1238 16.66 42.4418 16.4484 42.7093 16.1809C42.9768 15.9134 43.1884 15.5953 43.3318 15.2453C43.4752 14.8952 43.5476 14.5201 43.5446 14.1418C43.5416 13.7635 43.4634 13.3896 43.3146 13.0418C43.1657 12.694 42.9491 12.3793 42.6775 12.116H42.6777ZM41.0645 14.5359C40.9573 14.6424 40.8123 14.7022 40.6612 14.7022C40.51 14.7022 40.3651 14.6424 40.2578 14.5359L29.7707 4.04814C29.7177 3.99523 29.6757 3.9324 29.6471 3.86325C29.6184 3.7941 29.6036 3.71998 29.6036 3.64513C29.6036 3.57028 29.6184 3.49616 29.6471 3.42701C29.6757 3.35786 29.7177 3.29504 29.7707 3.24212C29.8778 3.13546 30.0228 3.07557 30.174 3.07557C30.3252 3.07557 30.4702 3.13546 30.5774 3.24212L41.0645 13.7292C41.1715 13.8362 41.2315 13.9812 41.2315 14.1325C41.2318 14.2074 41.2172 14.2817 41.1886 14.351C41.1599 14.4202 41.1177 14.4831 41.0645 14.5359Z" fill="white"/>
</svg>
