<svg width="49" height="39" viewBox="0 0 49 39" fill="none" xmlns="http://www.w3.org/2000/svg">
<path d="M9.05008 13.0469L0.480812 14.1896V38.9272L9.05651 36.6402L17.5931 38.7745L26.195 37.627V12.9751L17.6215 14.1183L9.05008 13.0469Z" fill="white"/>
<path d="M9.05008 13.0469L0.480812 14.1896V38.9272L9.05651 36.6402L17.5931 38.7745L26.195 37.627V12.9751L17.6215 14.1183L9.05008 13.0469ZM9.58793 14.1938L17.0879 15.1313V37.5434L9.58793 35.6684V14.1938ZM1.55224 15.1271L8.51651 14.1987V35.6754L1.55224 37.5322V15.1271ZM25.1236 36.6895L18.1593 37.6179V15.1271L25.1236 14.1987V36.6895Z" fill="#B5B5B5"/>
<path d="M41.5945 6.61356H43.7647V8.78376H41.5945V6.61356ZM45.9349 9.86886H48.1051V12.0391H45.9349V9.86886ZM45.9349 15.2944H48.1051V17.4646H45.9349V15.2944ZM45.9349 20.7199H48.1051V22.8901H45.9349V20.7199ZM41.5945 23.9752H43.7647V26.1453H41.5945V23.9752ZM31.8286 25.0602H33.9988V27.2304H31.8286V25.0602ZM26.4031 26.1453H28.5733V28.3155H26.4031V26.1453ZM15.5521 30.4857H17.7223V32.6559H15.5521V30.4857ZM12.6147 22.1229L10.6692 24.0685L8.72358 22.1229L7.18925 23.6572L9.13483 25.6028L7.18925 27.5484L8.72358 29.0827L10.6692 27.1371L12.6147 29.0827L14.1491 27.5484L12.2035 25.6028L14.1491 23.6572L12.6147 22.1229ZM32.5958 5.8464L30.6502 3.90081L32.5958 1.95523L31.0614 0.420898L29.1159 2.36648L27.1703 0.420898L25.6359 1.95523L27.5815 3.90081L25.6359 5.8464L27.1703 7.38072L29.1159 5.43514L31.0614 7.38072L32.5958 5.8464Z" fill="#F89325"/>
</svg>
