<svg width="51" height="217" viewBox="0 0 51 217" fill="none" xmlns="http://www.w3.org/2000/svg">
<path d="M15.0638 3.40894L9.53219 8.94057C6.47717 11.9956 6.47718 16.9488 9.5322 20.0038V20.0038C12.5872 23.0588 12.5872 28.012 9.5322 31.067V31.067C6.47718 34.122 6.47718 39.0752 9.5322 42.1302V42.1302C12.5872 45.1852 12.5872 50.1384 9.5322 53.1934V53.1934C6.47718 56.2485 6.47718 61.2016 9.5322 64.2566V64.2566C12.5872 67.3117 12.5872 72.2648 9.5322 75.3199V75.3199C6.47718 78.3749 6.47718 83.3281 9.5322 86.3831V86.3831C12.5872 89.4381 12.5872 94.3913 9.5322 97.4463V97.4463C6.47718 100.501 6.47718 105.454 9.5322 108.51V108.51C12.5872 111.565 12.5872 116.518 9.5322 119.573V119.573C6.47718 122.628 6.47718 127.581 9.5322 130.636V130.636C12.5872 133.691 12.5872 138.644 9.5322 141.699V141.699C6.47718 144.754 6.47718 149.707 9.5322 152.762V152.762C12.5872 155.817 12.5872 160.771 9.5322 163.826V163.826C6.47717 166.881 6.47717 171.834 9.5322 174.889V174.889C12.5872 177.944 12.5872 182.897 9.5322 185.952V185.952C6.47717 189.007 6.47717 193.96 9.5322 197.015V197.015C12.5872 200.07 12.5872 205.023 9.5322 208.078L4.00059 213.61" stroke="#FDD400" stroke-opacity="0.32" stroke-width="8.70815"/>
<path d="M31.2079 3.40894L25.6763 8.94057C22.6213 11.9956 22.6213 16.9488 25.6763 20.0038V20.0038C28.7313 23.0588 28.7313 28.012 25.6763 31.067V31.067C22.6213 34.122 22.6213 39.0752 25.6763 42.1302V42.1302C28.7313 45.1852 28.7313 50.1384 25.6763 53.1934V53.1934C22.6213 56.2485 22.6213 61.2016 25.6763 64.2566V64.2566C28.7313 67.3117 28.7313 72.2648 25.6763 75.3199V75.3199C22.6213 78.3749 22.6213 83.3281 25.6763 86.3831V86.3831C28.7313 89.4381 28.7313 94.3913 25.6763 97.4463V97.4463C22.6213 100.501 22.6213 105.454 25.6763 108.51V108.51C28.7313 111.565 28.7313 116.518 25.6763 119.573V119.573C22.6213 122.628 22.6213 127.581 25.6763 130.636V130.636C28.7313 133.691 28.7313 138.644 25.6763 141.699V141.699C22.6213 144.754 22.6213 149.707 25.6763 152.762V152.762C28.7313 155.817 28.7313 160.771 25.6763 163.826V163.826C22.6213 166.881 22.6213 171.834 25.6763 174.889V174.889C28.7313 177.944 28.7313 182.897 25.6763 185.952V185.952C22.6213 189.007 22.6213 193.96 25.6763 197.015V197.015C28.7313 200.07 28.7313 205.023 25.6763 208.078L20.1447 213.61" stroke="#FDD400" stroke-opacity="0.32" stroke-width="8.70815"/>
<path d="M47.352 3.40894L41.8204 8.94057C38.7653 11.9956 38.7654 16.9488 41.8204 20.0038V20.0038C44.8754 23.0588 44.8754 28.012 41.8204 31.067V31.067C38.7654 34.122 38.7654 39.0752 41.8204 42.1302V42.1302C44.8754 45.1852 44.8754 50.1384 41.8204 53.1934V53.1934C38.7654 56.2485 38.7654 61.2016 41.8204 64.2566V64.2566C44.8754 67.3117 44.8754 72.2648 41.8204 75.3199V75.3199C38.7654 78.3749 38.7654 83.3281 41.8204 86.3831V86.3831C44.8754 89.4381 44.8754 94.3913 41.8204 97.4463V97.4463C38.7654 100.501 38.7654 105.454 41.8204 108.51V108.51C44.8754 111.565 44.8754 116.518 41.8204 119.573V119.573C38.7654 122.628 38.7654 127.581 41.8204 130.636V130.636C44.8754 133.691 44.8754 138.644 41.8204 141.699V141.699C38.7654 144.754 38.7654 149.707 41.8204 152.762V152.762C44.8754 155.817 44.8754 160.771 41.8204 163.826V163.826C38.7654 166.881 38.7654 171.834 41.8204 174.889V174.889C44.8754 177.944 44.8754 182.897 41.8204 185.952V185.952C38.7654 189.007 38.7654 193.96 41.8204 197.015V197.015C44.8754 200.07 44.8754 205.023 41.8204 208.078L36.2888 213.61" stroke="#FDD400" stroke-opacity="0.32" stroke-width="8.70815"/>
</svg>
